PathFileType	4	(X/Y/Z)	T:\Spectrum_Optical_Capture\Spectrum_Demo_10_05_01_TRUECOMBAT\07_Smooth_Trc\TC_Jump_1.trc
DataRate	CameraRate	NumFrames	NumMarkers	Units	OrigDataRate	OrigDataStartFrame	OrigNumFrames
60.0	60.0	       4	46	mm	60.0	1	       913
Frame#	Time	HeadTop			ForeHead			LFrontHead			RFrontHead			TopSpine			Sternum			Scapula			LFShoulder			LShoulder			LBicep			LOuterElbow			LHand			LWristPinky			LWristThumb			RFShoulder			RShoulder			RBicep			ROuterElbow			RHand			RWristPinky			RWristThumb			MiddleBack			LowerBack			Root			Pelvis			LBackWaist			RBackWaist			LFrontWaist			RFrontWaist			Bellymarker			LThigh			LOuterKnee			LAnkle			LHeel			LOuterMeta			LToe			RThigh			ROuterKnee			RAnkle			RHeel			ROuterMeta			RToe			Floor1			Floor2			Floor3			Floor4			
		X1	Y1	Z1	X2	Y2	Z2	X3	Y3	Z3	X4	Y4	Z4	X5	Y5	Z5	X6	Y6	Z6	X7	Y7	Z7	X8	Y8	Z8	X9	Y9	Z9	X10	Y10	Z10	X11	Y11	Z11	X12	Y12	Z12	X13	Y13	Z13	X14	Y14	Z14	X15	Y15	Z15	X16	Y16	Z16	X17	Y17	Z17	X18	Y18	Z18	X19	Y19	Z19	X20	Y20	Z20	X21	Y21	Z21	X22	Y22	Z22	X23	Y23	Z23	X24	Y24	Z24	X25	Y25	Z25	X26	Y26	Z26	X27	Y27	Z27	X28	Y28	Z28	X29	Y29	Z29	X30	Y30	Z30	X31	Y31	Z31	X32	Y32	Z32	X33	Y33	Z33	X34	Y34	Z34	X35	Y35	Z35	X36	Y36	Z36	X37	Y37	Z37	X38	Y38	Z38	X39	Y39	Z39	X40	Y40	Z40	X41	Y41	Z41	X42	Y42	Z42	X43	Y43	Z43	X44	Y44	Z44	X45	Y45	Z45	X46	Y46	Z46	

1	0.000	-3132.30420	1669.81299	-3507.48340	-3073.82080	1551.45911	-3402.59277	-3041.71899	1539.77771	-3518.24023	-3189.39087	1555.68042	-3409.93579	-3244.22754	1353.73706	-3612.67847	-3088.60376	1182.98328	-3408.48926	-3357.76880	1229.47876	-3545.77002	-3053.01611	1295.54224	-3492.71631	-3072.64941	1393.22107	-3643.56250	-2929.81470	1366.83008	-3744.51929	-2881.95313	1279.59570	-3822.71167	-2676.11597	1385.47534	-3894.85791	-2610.09448	1351.02612	-3970.58228	-2529.25317	1401.86243	-3934.69189	-3177.23022	1296.25525	-3394.22925	-3304.67432	1391.57813	-3455.96899	-3445.80664	1342.08325	-3394.41626	-3530.18384	1301.67285	-3281.96704	-3628.31738	1424.18005	-3098.19995	-3707.46362	1404.71118	-3051.41895	-3706.66797	1454.70752	-2966.95532	-3254.48535	1265.38831	-3626.53784	-3249.23291	1142.04724	-3619.40381	-3242.53394	1030.72070	-3608.52881	-3095.60840	1066.77905	-3666.57788	-3107.64844	938.58234	-3658.64282	-3334.12256	946.99438	-3489.45850	-3008.61450	950.71173	-3551.78906	-3270.39819	958.69702	-3360.47290	-3073.63232	986.50507	-3366.13062	-3031.28711	682.95209	-3650.74756	-3040.02222	514.30035	-3640.89551	-3064.17822	113.32214	-3684.84521	-3151.33862	42.78419	-3680.24121	-2998.09570	19.53619	-3653.69873	-2949.58130	27.19193	-3534.34717	-3296.01904	687.09552	-3346.85327	-3323.06348	530.25110	-3419.24683	-3359.21289	131.95576	-3471.28711	-3327.74243	43.02904	-3566.56470	-3356.20093	19.50383	-3407.03979	-3256.59058	31.04158	-3331.58447	4200.44678	32.48903	-4241.18262	-3735.47192	-12.78543	-4192.35107	-3780.30127	-15.73864	4945.22705	4163.34082	21.65481	4907.31348	
2	0.017	-3132.13428	1669.78870	-3507.42285	-3073.74780	1551.28992	-3402.40234	-3041.37354	1539.61414	-3518.16772	-3188.40576	1555.94604	-3409.28125	-3244.10449	1353.72717	-3612.64722	-3088.56885	1183.04163	-3408.48364	-3357.42310	1229.35913	-3545.75708	-3053.07520	1295.41370	-3492.23584	-3072.70117	1393.15088	-3643.51416	-2929.55371	1367.90503	-3745.55664	-2881.46924	1279.29675	-3822.40137	-2675.58984	1385.35803	-3894.18921	-2609.56934	1350.97046	-3969.92651	-2528.91406	1401.98511	-3933.90454	-3177.02197	1295.95557	-3394.55518	-3304.63330	1391.45300	-3455.86548	-3445.89941	1342.03369	-3394.41846	-3530.24463	1301.37842	-3281.96460	-3628.30566	1423.94592	-3098.53784	-3707.48413	1404.24182	-3051.29907	-3705.42798	1454.17798	-2966.93677	-3254.41602	1265.36255	-3626.58594	-3249.10571	1142.00134	-3619.27539	-3242.40820	1030.76343	-3608.37500	-3095.54053	1066.78601	-3666.47485	-3107.67285	938.52893	-3658.34912	-3334.13574	946.97815	-3489.25439	-3008.67090	950.68378	-3551.83350	-3270.03613	958.82764	-3360.21729	-3073.62671	986.50800	-3366.11890	-3031.20532	682.99762	-3650.56909	-3040.14429	514.57104	-3640.88989	-3064.13379	113.30566	-3684.80298	-3151.82397	42.54436	-3680.21240	-2997.91577	19.23782	-3653.30249	-2949.43262	27.15677	-3534.16577	-3295.94287	687.00824	-3346.59009	-3323.26245	530.33167	-3419.05981	-3359.21313	131.93272	-3471.29590	-3327.84448	42.99676	-3566.55640	-3356.90942	19.62335	-3406.79443	-3256.58228	31.25176	-3331.59619	4200.64160	32.62431	-4241.20117	-3735.25024	-12.66987	-4192.44238	-3781.32300	-15.83990	4946.66699	4163.44531	21.73071	4907.26123	
3	0.033	-3131.98120	1669.76794	-3507.34814	-3073.67554	1551.14258	-3402.22803	-3041.03687	1539.44397	-3518.09644	-3187.67651	1556.13379	-3408.76978	-3243.98804	1353.72070	-3612.62183	-3088.55444	1183.06641	-3408.48511	-3357.13770	1229.25745	-3545.77734	-3053.12280	1295.33997	-3492.08325	-3072.73486	1393.09167	-3643.47461	-2929.35571	1368.68970	-3746.29956	-2881.04395	1279.06238	-3822.14966	-2675.17896	1385.29163	-3893.64917	-2609.07568	1350.93213	-3969.36401	-2528.58887	1402.06628	-3933.14160	-3176.87939	1295.68677	-3394.81323	-3304.59277	1391.36621	-3455.80469	-3445.98730	1341.98291	-3394.45557	-3530.30859	1301.07678	-3281.98242	-3628.25122	1423.62549	-3098.80273	-3707.50464	1403.70300	-3051.18921	-3704.35132	1453.67896	-2966.84082	-3254.34058	1265.32764	-3626.63745	-3248.99634	1141.94788	-3619.18262	-3242.30737	1030.77649	-3608.16284	-3095.48462	1066.78650	-3666.38599	-3107.65430	938.47491	-3658.05542	-3334.15894	946.97095	-3489.07373	-3008.80005	950.63446	-3551.90942	-3269.75122	958.92548	-3359.98560	-3073.60425	986.52063	-3366.07031	-3031.13892	683.03552	-3650.42212	-3040.20947	514.76526	-3640.87817	-3064.10889	113.29636	-3684.77832	-3152.20020	42.32739	-3680.18115	-2997.76636	19.04032	-3653.02856	-2949.29565	27.13376	-3534.02539	-3295.88062	686.94678	-3346.38281	-3323.38965	530.38959	-3418.88037	-3359.19482	131.91019	-3471.33032	-3327.93604	42.98111	-3566.55713	-3357.41357	19.70577	-3406.64233	-3256.60742	31.40895	-3331.63623	4200.76904	32.71159	-4241.21240	-3735.10498	-12.59373	-4192.50586	-3782.08984	-15.91578	4947.74121	4163.54297	21.72475	4907.24854	
4	0.050	-3131.85181	1669.75256	-3507.25586	-3073.59033	1551.03455	-3402.09082	-3040.72803	1539.27808	-3518.06128	-3187.27222	1556.21838	-3408.43945	-3243.89795	1353.71582	-3612.60352	-3088.56079	1183.05566	-3408.49072	-3356.94678	1229.17761	-3545.82007	-3053.17310	1295.30896	-3492.24341	-3072.73389	1393.04651	-3643.43799	-2929.23511	1369.06604	-3746.63184	-2880.71143	1278.92090	-3821.97510	-2674.88354	1385.27600	-3893.25708	-2608.62500	1350.91174	-3968.93945	-2528.28027	1402.08936	-3932.39917	-3176.84180	1295.48145	-3394.98120	-3304.55591	1391.32764	-3455.79443	-3446.05200	1341.92615	-3394.55347	-3530.36035	1300.74622	-3282.01294	-3628.14258	1423.16846	-3098.89551	-3707.52393	1403.09607	-3051.09131	-3703.59155	1453.19312	-2966.62598	-3254.25244	1265.27856	-3626.68726	-3248.90576	1141.89075	-3619.13794	-3242.25000	1030.74402	-3607.88867	-3095.44360	1066.78210	-3666.32983	-3107.58130	938.42786	-3657.77588	-3334.16162	946.95361	-3488.92480	-3009.03271	950.55994	-3552.02075	-3269.56592	958.98145	-3359.78833	-3073.55371	986.54926	-3365.96143	-3031.08911	683.06464	-3650.31665	-3040.20996	514.85138	-3640.86182	-3064.11084	113.29420	-3684.77490	-3152.43140	42.16167	-3680.14331	-2997.63062	18.95461	-3652.90918	-2949.20020	27.11491	-3533.90845	-3295.83594	686.91730	-3346.24976	-3323.41724	530.41565	-3418.70142	-3359.14673	131.87737	-3471.38086	-3328.00049	42.98275	-3566.56641	-3357.64575	19.73953	-3406.61475	-3256.67407	31.50731	-3331.71802	4200.81250	32.74324	-4241.21338	-3735.04224	-12.56009	-4192.53711	-3782.50757	-15.96164	4948.31396	4163.65186	21.58610	4907.26465	
